<svg width="153" height="124" viewBox="0 0 153 124" fill="none" xmlns="http://www.w3.org/2000/svg">
<rect x="0.5" y="0.5" width="152" height="123" rx="4.5" stroke="#8A38F5" stroke-dasharray="10 5"/>
<rect x="20" y="20" width="32" height="32" rx="4" fill="black" fill-opacity="0.9"/>
<path d="M30.1364 31.9141C28.9848 32.0547 28.0909 32.625 27.4545 33.625C26.8182 34.625 26.5 35.8516 26.5 37.3047C26.5 38.3672 26.6667 39.2969 27 40.0938C27.3333 40.8828 27.7917 41.5 28.375 41.9453C28.9583 42.3828 29.6212 42.6016 30.3636 42.6016C30.9848 42.6016 31.5189 42.4492 31.9659 42.1445C32.4053 41.832 32.7727 41.4336 33.0682 40.9492C33.3561 40.4648 33.5947 39.957 33.7841 39.4258C33.9659 38.8945 34.1136 38.4062 34.2273 37.9609L34.8636 35.5234C35.0227 34.8984 35.2424 34.2031 35.5227 33.4375C35.803 32.6641 36.1856 31.9258 36.6705 31.2227C37.1477 30.5117 37.7614 29.9258 38.5114 29.4648C39.2614 29.0039 40.1818 28.7734 41.2727 28.7734C42.5303 28.7734 43.6667 29.1133 44.6818 29.793C45.697 30.4648 46.5038 31.4492 47.1023 32.7461C47.7008 34.0352 48 35.6016 48 37.4453C48 39.1641 47.7311 40.6523 47.1932 41.9102C46.6553 43.1602 45.9053 44.1445 44.9432 44.8633C43.9811 45.5742 42.8636 45.9766 41.5909 46.0703V43.0703C42.4697 42.9922 43.197 42.6875 43.7727 42.1562C44.3409 41.6172 44.7652 40.9375 45.0455 40.1172C45.3182 39.2891 45.4545 38.3984 45.4545 37.4453C45.4545 36.3359 45.2803 35.3398 44.9318 34.457C44.5758 33.5742 44.0833 32.875 43.4545 32.3594C42.8182 31.8437 42.0758 31.5859 41.2273 31.5859C40.4545 31.5859 39.8258 31.8086 39.3409 32.2539C38.8561 32.6992 38.4621 33.2852 38.1591 34.0117C37.8561 34.7383 37.5909 35.5234 37.3636 36.3672L36.5455 39.3203C36.0227 41.1953 35.2765 42.6797 34.3068 43.7734C33.3371 44.8672 32.0682 45.4141 30.5 45.4141C29.197 45.4141 28.0606 45.0508 27.0909 44.3242C26.1136 43.5898 25.3561 42.6055 24.8182 41.3711C24.2727 40.1289 24 38.7422 24 37.2109C24 35.6641 24.2689 34.2891 24.8068 33.0859C25.3371 31.8828 26.0644 30.9297 26.9886 30.2266C27.9129 29.5156 28.9621 29.1406 30.1364 29.1016V31.9141Z" fill="white"/>
<path d="M38.0985 24V48H35.2803V24H38.0985Z" fill="white"/>
<path d="M61.204 41V31.06H62.716V39.614H67.56V41H61.204ZM71.7722 41.168C71.0443 41.168 70.4143 41.0093 69.8823 40.692C69.3596 40.3653 68.9536 39.9127 68.6643 39.334C68.3843 38.746 68.2443 38.06 68.2443 37.276C68.2443 36.492 68.3843 35.8107 68.6643 35.232C68.9536 34.644 69.3596 34.1913 69.8823 33.874C70.4049 33.5473 71.0209 33.384 71.7303 33.384C72.4023 33.384 72.9949 33.5427 73.5083 33.86C74.0216 34.168 74.4183 34.616 74.6983 35.204C74.9876 35.792 75.1323 36.5013 75.1323 37.332V37.71H69.7843C69.8216 38.438 70.0129 38.984 70.3583 39.348C70.7129 39.712 71.1889 39.894 71.7863 39.894C72.2249 39.894 72.5843 39.796 72.8643 39.6C73.1536 39.3947 73.3589 39.1147 73.4803 38.76L75.0203 38.858C74.8243 39.558 74.4369 40.118 73.8583 40.538C73.2889 40.958 72.5936 41.168 71.7722 41.168ZM69.7843 36.59H73.5643C73.5176 35.9273 73.3263 35.4373 72.9903 35.12C72.6543 34.8027 72.2343 34.644 71.7303 34.644C71.1983 34.644 70.7596 34.812 70.4143 35.148C70.0783 35.4747 69.8683 35.9553 69.7843 36.59ZM78.8723 41.168C78.0977 41.168 77.477 40.9907 77.0103 40.636C76.553 40.2813 76.3243 39.782 76.3243 39.138C76.3243 38.5033 76.5157 38.004 76.8983 37.64C77.2903 37.276 77.8923 37.0147 78.7043 36.856L81.2663 36.366C81.2663 35.218 80.7297 34.644 79.6563 34.644C79.1803 34.644 78.807 34.7513 78.5363 34.966C78.2657 35.1807 78.079 35.4887 77.9763 35.89L76.4503 35.792C76.5903 35.0453 76.9357 34.4573 77.4863 34.028C78.0463 33.5987 78.7697 33.384 79.6563 33.384C80.6643 33.384 81.4297 33.6547 81.9523 34.196C82.4843 34.728 82.7503 35.4793 82.7503 36.45V39.348C82.7503 39.5253 82.7783 39.6513 82.8343 39.726C82.8997 39.7913 83.0023 39.824 83.1423 39.824H83.4083V41C83.2777 41.028 83.0957 41.042 82.8623 41.042C82.4423 41.042 82.1063 40.9533 81.8543 40.776C81.6023 40.5987 81.4483 40.2907 81.3923 39.852C81.2057 40.244 80.8837 40.5613 80.4263 40.804C79.969 41.0467 79.451 41.168 78.8723 41.168ZM79.1103 39.992C79.7823 39.992 80.3097 39.8007 80.6923 39.418C81.075 39.0353 81.2663 38.55 81.2663 37.962V37.486L79.0823 37.906C78.6343 37.99 78.317 38.1253 78.1303 38.312C77.953 38.4893 77.8643 38.718 77.8643 38.998C77.8643 39.3153 77.9717 39.5627 78.1863 39.74C78.4103 39.908 78.7183 39.992 79.1103 39.992ZM84.6613 41V33.552H86.0193L86.0613 34.966C86.2013 34.4807 86.416 34.126 86.7053 33.902C87.004 33.6687 87.382 33.552 87.8393 33.552H88.5533V34.882H87.8393C87.27 34.882 86.8453 35.022 86.5653 35.302C86.2853 35.582 86.1453 36.016 86.1453 36.604V41H84.6613ZM89.6652 41V33.552H91.0232L91.0512 34.854C91.2472 34.3407 91.5459 33.9673 91.9472 33.734C92.3486 33.5007 92.8059 33.384 93.3192 33.384C93.8699 33.384 94.3319 33.51 94.7052 33.762C95.0786 34.0047 95.3586 34.3407 95.5452 34.77C95.7412 35.19 95.8392 35.6707 95.8392 36.212V41H94.3552V36.66C94.3552 36.0067 94.2432 35.5073 94.0192 35.162C93.8046 34.8073 93.4359 34.63 92.9132 34.63C92.3812 34.63 91.9519 34.8073 91.6252 35.162C91.3079 35.5073 91.1492 36.0067 91.1492 36.66V41H89.6652ZM101.675 41.224C100.881 41.224 100.191 41.0793 99.6027 40.79C99.0241 40.5007 98.5667 40.0993 98.2307 39.586C97.8947 39.0727 97.6987 38.4753 97.6427 37.794L99.1967 37.696C99.2901 38.3867 99.5421 38.9187 99.9527 39.292C100.373 39.6653 100.956 39.852 101.703 39.852C102.347 39.852 102.846 39.7307 103.201 39.488C103.555 39.2453 103.733 38.8907 103.733 38.424C103.733 38.144 103.663 37.8967 103.523 37.682C103.392 37.458 103.135 37.2573 102.753 37.08C102.379 36.8933 101.829 36.7113 101.101 36.534C100.307 36.3473 99.6727 36.1373 99.1967 35.904C98.7207 35.6613 98.3754 35.3673 98.1607 35.022C97.9554 34.6673 97.8527 34.2333 97.8527 33.72C97.8527 33.1507 97.9881 32.6513 98.2587 32.222C98.5387 31.7833 98.9354 31.4427 99.4487 31.2C99.9621 30.9573 100.578 30.836 101.297 30.836C102.053 30.836 102.701 30.976 103.243 31.256C103.784 31.536 104.209 31.9187 104.517 32.404C104.825 32.8893 105.016 33.4447 105.091 34.07L103.537 34.154C103.462 33.5847 103.233 33.118 102.851 32.754C102.477 32.39 101.95 32.208 101.269 32.208C100.69 32.208 100.233 32.3433 99.8967 32.614C99.5701 32.8753 99.4067 33.2253 99.4067 33.664C99.4067 33.9533 99.4721 34.1913 99.6027 34.378C99.7427 34.5647 99.9854 34.7327 100.331 34.882C100.685 35.022 101.185 35.1667 101.829 35.316C102.687 35.512 103.369 35.7547 103.873 36.044C104.377 36.324 104.736 36.6553 104.951 37.038C105.175 37.4207 105.287 37.8547 105.287 38.34C105.287 38.928 105.133 39.4413 104.825 39.88C104.526 40.3093 104.106 40.6407 103.565 40.874C103.023 41.1073 102.393 41.224 101.675 41.224ZM107.097 43.1V33.552H108.497L108.525 34.686C108.74 34.2567 109.043 33.9347 109.435 33.72C109.836 33.496 110.284 33.384 110.779 33.384C111.507 33.384 112.104 33.566 112.571 33.93C113.047 34.2847 113.397 34.756 113.621 35.344C113.854 35.932 113.971 36.576 113.971 37.276C113.971 37.976 113.854 38.62 113.621 39.208C113.397 39.796 113.047 40.272 112.571 40.636C112.104 40.9907 111.507 41.168 110.779 41.168C110.303 41.168 109.869 41.0653 109.477 40.86C109.085 40.6453 108.786 40.356 108.581 39.992V43.1H107.097ZM110.513 39.88C111.11 39.88 111.577 39.6513 111.913 39.194C112.258 38.7367 112.431 38.0973 112.431 37.276C112.431 36.4547 112.258 35.8153 111.913 35.358C111.577 34.9007 111.11 34.672 110.513 34.672C109.916 34.672 109.444 34.8913 109.099 35.33C108.754 35.7687 108.581 36.4173 108.581 37.276C108.581 38.1347 108.754 38.7833 109.099 39.222C109.444 39.6607 109.916 39.88 110.513 39.88ZM115.478 41V31.06H116.962V34.63C117.158 34.2007 117.447 33.888 117.83 33.692C118.222 33.4867 118.66 33.384 119.146 33.384C119.958 33.384 120.578 33.65 121.008 34.182C121.437 34.7047 121.652 35.3813 121.652 36.212V41H120.168V36.604C120.168 35.288 119.696 34.63 118.754 34.63C118.203 34.63 117.764 34.8027 117.438 35.148C117.12 35.484 116.962 35.9787 116.962 36.632V41H115.478ZM126.651 41.168C125.923 41.168 125.293 41.0093 124.761 40.692C124.238 40.3653 123.832 39.9127 123.543 39.334C123.263 38.746 123.123 38.06 123.123 37.276C123.123 36.492 123.263 35.8107 123.543 35.232C123.832 34.644 124.238 34.1913 124.761 33.874C125.284 33.5473 125.9 33.384 126.609 33.384C127.281 33.384 127.874 33.5427 128.387 33.86C128.9 34.168 129.297 34.616 129.577 35.204C129.866 35.792 130.011 36.5013 130.011 37.332V37.71H124.663C124.7 38.438 124.892 38.984 125.237 39.348C125.592 39.712 126.068 39.894 126.665 39.894C127.104 39.894 127.463 39.796 127.743 39.6C128.032 39.3947 128.238 39.1147 128.359 38.76L129.899 38.858C129.703 39.558 129.316 40.118 128.737 40.538C128.168 40.958 127.472 41.168 126.651 41.168ZM124.663 36.59H128.443C128.396 35.9273 128.205 35.4373 127.869 35.12C127.533 34.8027 127.113 34.644 126.609 34.644C126.077 34.644 125.638 34.812 125.293 35.148C124.957 35.4747 124.747 35.9553 124.663 36.59ZM131.515 41V33.552H132.873L132.915 34.966C133.055 34.4807 133.27 34.126 133.559 33.902C133.858 33.6687 134.236 33.552 134.693 33.552H135.407V34.882H134.693C134.124 34.882 133.699 35.022 133.419 35.302C133.139 35.582 132.999 36.016 132.999 36.604V41H131.515ZM139.53 41.168C138.802 41.168 138.172 41.0093 137.64 40.692C137.117 40.3653 136.711 39.9127 136.422 39.334C136.142 38.746 136.002 38.06 136.002 37.276C136.002 36.492 136.142 35.8107 136.422 35.232C136.711 34.644 137.117 34.1913 137.64 33.874C138.163 33.5473 138.779 33.384 139.488 33.384C140.16 33.384 140.753 33.5427 141.266 33.86C141.779 34.168 142.176 34.616 142.456 35.204C142.745 35.792 142.89 36.5013 142.89 37.332V37.71H137.542C137.579 38.438 137.771 38.984 138.116 39.348C138.471 39.712 138.947 39.894 139.544 39.894C139.983 39.894 140.342 39.796 140.622 39.6C140.911 39.3947 141.117 39.1147 141.238 38.76L142.778 38.858C142.582 39.558 142.195 40.118 141.616 40.538C141.047 40.958 140.351 41.168 139.53 41.168ZM137.542 36.59H141.322C141.275 35.9273 141.084 35.4373 140.748 35.12C140.412 34.8027 139.992 34.644 139.488 34.644C138.956 34.644 138.517 34.812 138.172 35.148C137.836 35.4747 137.626 35.9553 137.542 36.59Z" fill="black"/>
<rect x="20" y="72" width="32" height="32" rx="4" fill="white" fill-opacity="0.9"/>
<path d="M30.1364 83.9141C28.9848 84.0547 28.0909 84.625 27.4545 85.625C26.8182 86.625 26.5 87.8516 26.5 89.3047C26.5 90.3672 26.6667 91.2969 27 92.0938C27.3333 92.8828 27.7917 93.5 28.375 93.9453C28.9583 94.3828 29.6212 94.6016 30.3636 94.6016C30.9848 94.6016 31.5189 94.4492 31.9659 94.1445C32.4053 93.832 32.7727 93.4336 33.0682 92.9492C33.3561 92.4648 33.5947 91.957 33.7841 91.4258C33.9659 90.8945 34.1136 90.4062 34.2273 89.9609L34.8636 87.5234C35.0227 86.8984 35.2424 86.2031 35.5227 85.4375C35.803 84.6641 36.1856 83.9258 36.6705 83.2227C37.1477 82.5117 37.7614 81.9258 38.5114 81.4648C39.2614 81.0039 40.1818 80.7734 41.2727 80.7734C42.5303 80.7734 43.6667 81.1133 44.6818 81.793C45.697 82.4648 46.5038 83.4492 47.1023 84.7461C47.7008 86.0352 48 87.6016 48 89.4453C48 91.1641 47.7311 92.6523 47.1932 93.9102C46.6553 95.1602 45.9053 96.1445 44.9432 96.8633C43.9811 97.5742 42.8636 97.9766 41.5909 98.0703V95.0703C42.4697 94.9922 43.197 94.6875 43.7727 94.1562C44.3409 93.6172 44.7652 92.9375 45.0455 92.1172C45.3182 91.2891 45.4545 90.3984 45.4545 89.4453C45.4545 88.3359 45.2803 87.3398 44.9318 86.457C44.5758 85.5742 44.0833 84.875 43.4545 84.3594C42.8182 83.8437 42.0758 83.5859 41.2273 83.5859C40.4545 83.5859 39.8258 83.8086 39.3409 84.2539C38.8561 84.6992 38.4621 85.2852 38.1591 86.0117C37.8561 86.7383 37.5909 87.5234 37.3636 88.3672L36.5455 91.3203C36.0227 93.1953 35.2765 94.6797 34.3068 95.7734C33.3371 96.8672 32.0682 97.4141 30.5 97.4141C29.197 97.4141 28.0606 97.0508 27.0909 96.3242C26.1136 95.5898 25.3561 94.6055 24.8182 93.3711C24.2727 92.1289 24 90.7422 24 89.2109C24 87.6641 24.2689 86.2891 24.8068 85.0859C25.3371 83.8828 26.0644 82.9297 26.9886 82.2266C27.9129 81.5156 28.9621 81.1406 30.1364 81.1016V83.9141Z" fill="black"/>
<path d="M38.0985 76V100H35.2803V76H38.0985Z" fill="black"/>
<path d="M61.204 93V83.06H62.716V91.614H67.56V93H61.204ZM71.7722 93.168C71.0443 93.168 70.4143 93.0093 69.8823 92.692C69.3596 92.3653 68.9536 91.9127 68.6643 91.334C68.3843 90.746 68.2443 90.06 68.2443 89.276C68.2443 88.492 68.3843 87.8107 68.6643 87.232C68.9536 86.644 69.3596 86.1913 69.8823 85.874C70.4049 85.5473 71.0209 85.384 71.7303 85.384C72.4023 85.384 72.9949 85.5427 73.5083 85.86C74.0216 86.168 74.4183 86.616 74.6983 87.204C74.9876 87.792 75.1323 88.5013 75.1323 89.332V89.71H69.7843C69.8216 90.438 70.0129 90.984 70.3583 91.348C70.7129 91.712 71.1889 91.894 71.7863 91.894C72.2249 91.894 72.5843 91.796 72.8643 91.6C73.1536 91.3947 73.3589 91.1147 73.4803 90.76L75.0203 90.858C74.8243 91.558 74.4369 92.118 73.8583 92.538C73.2889 92.958 72.5936 93.168 71.7722 93.168ZM69.7843 88.59H73.5643C73.5176 87.9273 73.3263 87.4373 72.9903 87.12C72.6543 86.8027 72.2343 86.644 71.7303 86.644C71.1983 86.644 70.7596 86.812 70.4143 87.148C70.0783 87.4747 69.8683 87.9553 69.7843 88.59ZM78.8723 93.168C78.0977 93.168 77.477 92.9907 77.0103 92.636C76.553 92.2813 76.3243 91.782 76.3243 91.138C76.3243 90.5033 76.5157 90.004 76.8983 89.64C77.2903 89.276 77.8923 89.0147 78.7043 88.856L81.2663 88.366C81.2663 87.218 80.7297 86.644 79.6563 86.644C79.1803 86.644 78.807 86.7513 78.5363 86.966C78.2657 87.1807 78.079 87.4887 77.9763 87.89L76.4503 87.792C76.5903 87.0453 76.9357 86.4573 77.4863 86.028C78.0463 85.5987 78.7697 85.384 79.6563 85.384C80.6643 85.384 81.4297 85.6547 81.9523 86.196C82.4843 86.728 82.7503 87.4793 82.7503 88.45V91.348C82.7503 91.5253 82.7783 91.6513 82.8343 91.726C82.8997 91.7913 83.0023 91.824 83.1423 91.824H83.4083V93C83.2777 93.028 83.0957 93.042 82.8623 93.042C82.4423 93.042 82.1063 92.9533 81.8543 92.776C81.6023 92.5987 81.4483 92.2907 81.3923 91.852C81.2057 92.244 80.8837 92.5613 80.4263 92.804C79.969 93.0467 79.451 93.168 78.8723 93.168ZM79.1103 91.992C79.7823 91.992 80.3097 91.8007 80.6923 91.418C81.075 91.0353 81.2663 90.55 81.2663 89.962V89.486L79.0823 89.906C78.6343 89.99 78.317 90.1253 78.1303 90.312C77.953 90.4893 77.8643 90.718 77.8643 90.998C77.8643 91.3153 77.9717 91.5627 78.1863 91.74C78.4103 91.908 78.7183 91.992 79.1103 91.992ZM84.6613 93V85.552H86.0193L86.0613 86.966C86.2013 86.4807 86.416 86.126 86.7053 85.902C87.004 85.6687 87.382 85.552 87.8393 85.552H88.5533V86.882H87.8393C87.27 86.882 86.8453 87.022 86.5653 87.302C86.2853 87.582 86.1453 88.016 86.1453 88.604V93H84.6613ZM89.6652 93V85.552H91.0232L91.0512 86.854C91.2472 86.3407 91.5459 85.9673 91.9472 85.734C92.3486 85.5007 92.8059 85.384 93.3192 85.384C93.8699 85.384 94.3319 85.51 94.7052 85.762C95.0786 86.0047 95.3586 86.3407 95.5452 86.77C95.7412 87.19 95.8392 87.6707 95.8392 88.212V93H94.3552V88.66C94.3552 88.0067 94.2432 87.5073 94.0192 87.162C93.8046 86.8073 93.4359 86.63 92.9132 86.63C92.3812 86.63 91.9519 86.8073 91.6252 87.162C91.3079 87.5073 91.1492 88.0067 91.1492 88.66V93H89.6652ZM101.675 93.224C100.881 93.224 100.191 93.0793 99.6027 92.79C99.0241 92.5007 98.5667 92.0993 98.2307 91.586C97.8947 91.0727 97.6987 90.4753 97.6427 89.794L99.1967 89.696C99.2901 90.3867 99.5421 90.9187 99.9527 91.292C100.373 91.6653 100.956 91.852 101.703 91.852C102.347 91.852 102.846 91.7307 103.201 91.488C103.555 91.2453 103.733 90.8907 103.733 90.424C103.733 90.144 103.663 89.8967 103.523 89.682C103.392 89.458 103.135 89.2573 102.753 89.08C102.379 88.8933 101.829 88.7113 101.101 88.534C100.307 88.3473 99.6727 88.1373 99.1967 87.904C98.7207 87.6613 98.3754 87.3673 98.1607 87.022C97.9554 86.6673 97.8527 86.2333 97.8527 85.72C97.8527 85.1507 97.9881 84.6513 98.2587 84.222C98.5387 83.7833 98.9354 83.4427 99.4487 83.2C99.9621 82.9573 100.578 82.836 101.297 82.836C102.053 82.836 102.701 82.976 103.243 83.256C103.784 83.536 104.209 83.9187 104.517 84.404C104.825 84.8893 105.016 85.4447 105.091 86.07L103.537 86.154C103.462 85.5847 103.233 85.118 102.851 84.754C102.477 84.39 101.95 84.208 101.269 84.208C100.69 84.208 100.233 84.3433 99.8967 84.614C99.5701 84.8753 99.4067 85.2253 99.4067 85.664C99.4067 85.9533 99.4721 86.1913 99.6027 86.378C99.7427 86.5647 99.9854 86.7327 100.331 86.882C100.685 87.022 101.185 87.1667 101.829 87.316C102.687 87.512 103.369 87.7547 103.873 88.044C104.377 88.324 104.736 88.6553 104.951 89.038C105.175 89.4207 105.287 89.8547 105.287 90.34C105.287 90.928 105.133 91.4413 104.825 91.88C104.526 92.3093 104.106 92.6407 103.565 92.874C103.023 93.1073 102.393 93.224 101.675 93.224ZM107.097 95.1V85.552H108.497L108.525 86.686C108.74 86.2567 109.043 85.9347 109.435 85.72C109.836 85.496 110.284 85.384 110.779 85.384C111.507 85.384 112.104 85.566 112.571 85.93C113.047 86.2847 113.397 86.756 113.621 87.344C113.854 87.932 113.971 88.576 113.971 89.276C113.971 89.976 113.854 90.62 113.621 91.208C113.397 91.796 113.047 92.272 112.571 92.636C112.104 92.9907 111.507 93.168 110.779 93.168C110.303 93.168 109.869 93.0653 109.477 92.86C109.085 92.6453 108.786 92.356 108.581 91.992V95.1H107.097ZM110.513 91.88C111.11 91.88 111.577 91.6513 111.913 91.194C112.258 90.7367 112.431 90.0973 112.431 89.276C112.431 88.4547 112.258 87.8153 111.913 87.358C111.577 86.9007 111.11 86.672 110.513 86.672C109.916 86.672 109.444 86.8913 109.099 87.33C108.754 87.7687 108.581 88.4173 108.581 89.276C108.581 90.1347 108.754 90.7833 109.099 91.222C109.444 91.6607 109.916 91.88 110.513 91.88ZM115.478 93V83.06H116.962V86.63C117.158 86.2007 117.447 85.888 117.83 85.692C118.222 85.4867 118.66 85.384 119.146 85.384C119.958 85.384 120.578 85.65 121.008 86.182C121.437 86.7047 121.652 87.3813 121.652 88.212V93H120.168V88.604C120.168 87.288 119.696 86.63 118.754 86.63C118.203 86.63 117.764 86.8027 117.438 87.148C117.12 87.484 116.962 87.9787 116.962 88.632V93H115.478ZM126.651 93.168C125.923 93.168 125.293 93.0093 124.761 92.692C124.238 92.3653 123.832 91.9127 123.543 91.334C123.263 90.746 123.123 90.06 123.123 89.276C123.123 88.492 123.263 87.8107 123.543 87.232C123.832 86.644 124.238 86.1913 124.761 85.874C125.284 85.5473 125.9 85.384 126.609 85.384C127.281 85.384 127.874 85.5427 128.387 85.86C128.9 86.168 129.297 86.616 129.577 87.204C129.866 87.792 130.011 88.5013 130.011 89.332V89.71H124.663C124.7 90.438 124.892 90.984 125.237 91.348C125.592 91.712 126.068 91.894 126.665 91.894C127.104 91.894 127.463 91.796 127.743 91.6C128.032 91.3947 128.238 91.1147 128.359 90.76L129.899 90.858C129.703 91.558 129.316 92.118 128.737 92.538C128.168 92.958 127.472 93.168 126.651 93.168ZM124.663 88.59H128.443C128.396 87.9273 128.205 87.4373 127.869 87.12C127.533 86.8027 127.113 86.644 126.609 86.644C126.077 86.644 125.638 86.812 125.293 87.148C124.957 87.4747 124.747 87.9553 124.663 88.59ZM131.515 93V85.552H132.873L132.915 86.966C133.055 86.4807 133.27 86.126 133.559 85.902C133.858 85.6687 134.236 85.552 134.693 85.552H135.407V86.882H134.693C134.124 86.882 133.699 87.022 133.419 87.302C133.139 87.582 132.999 88.016 132.999 88.604V93H131.515ZM139.53 93.168C138.802 93.168 138.172 93.0093 137.64 92.692C137.117 92.3653 136.711 91.9127 136.422 91.334C136.142 90.746 136.002 90.06 136.002 89.276C136.002 88.492 136.142 87.8107 136.422 87.232C136.711 86.644 137.117 86.1913 137.64 85.874C138.163 85.5473 138.779 85.384 139.488 85.384C140.16 85.384 140.753 85.5427 141.266 85.86C141.779 86.168 142.176 86.616 142.456 87.204C142.745 87.792 142.89 88.5013 142.89 89.332V89.71H137.542C137.579 90.438 137.771 90.984 138.116 91.348C138.471 91.712 138.947 91.894 139.544 91.894C139.983 91.894 140.342 91.796 140.622 91.6C140.911 91.3947 141.117 91.1147 141.238 90.76L142.778 90.858C142.582 91.558 142.195 92.118 141.616 92.538C141.047 92.958 140.351 93.168 139.53 93.168ZM137.542 88.59H141.322C141.275 87.9273 141.084 87.4373 140.748 87.12C140.412 86.8027 139.992 86.644 139.488 86.644C138.956 86.644 138.517 86.812 138.172 87.148C137.836 87.4747 137.626 87.9553 137.542 88.59Z" fill="white"/>
</svg>
