<svg width="32" height="32" viewBox="0 0 32 32" fill="none" xmlns="http://www.w3.org/2000/svg">
<rect width="32" height="32" rx="4" fill="black" fill-opacity="0.9"/>
<path d="M10.1364 11.9141C8.98485 12.0547 8.09091 12.625 7.45455 13.625C6.81818 14.625 6.5 15.8516 6.5 17.3047C6.5 18.3672 6.66667 19.2969 7 20.0938C7.33333 20.8828 7.79167 21.5 8.375 21.9453C8.95833 22.3828 9.62121 22.6016 10.3636 22.6016C10.9848 22.6016 11.5189 22.4492 11.9659 22.1445C12.4053 21.832 12.7727 21.4336 13.0682 20.9492C13.3561 20.4648 13.5947 19.957 13.7841 19.4258C13.9659 18.8945 14.1136 18.4062 14.2273 17.9609L14.8636 15.5234C15.0227 14.8984 15.2424 14.2031 15.5227 13.4375C15.803 12.6641 16.1856 11.9258 16.6705 11.2227C17.1477 10.5117 17.7614 9.92578 18.5114 9.46484C19.2614 9.0039 20.1818 8.77344 21.2727 8.77344C22.5303 8.77344 23.6667 9.11328 24.6818 9.79297C25.697 10.4648 26.5038 11.4492 27.1023 12.7461C27.7008 14.0352 28 15.6016 28 17.4453C28 19.1641 27.7311 20.6523 27.1932 21.9102C26.6553 23.1602 25.9053 24.1445 24.9432 24.8633C23.9811 25.5742 22.8636 25.9766 21.5909 26.0703V23.0703C22.4697 22.9922 23.197 22.6875 23.7727 22.1562C24.3409 21.6172 24.7652 20.9375 25.0455 20.1172C25.3182 19.2891 25.4545 18.3984 25.4545 17.4453C25.4545 16.3359 25.2803 15.3398 24.9318 14.457C24.5758 13.5742 24.0833 12.875 23.4545 12.3594C22.8182 11.8437 22.0758 11.5859 21.2273 11.5859C20.4545 11.5859 19.8258 11.8086 19.3409 12.2539C18.8561 12.6992 18.4621 13.2852 18.1591 14.0117C17.8561 14.7383 17.5909 15.5234 17.3636 16.3672L16.5455 19.3203C16.0227 21.1953 15.2765 22.6797 14.3068 23.7734C13.3371 24.8672 12.0682 25.4141 10.5 25.4141C9.19697 25.4141 8.06061 25.0508 7.09091 24.3242C6.11364 23.5898 5.35606 22.6055 4.81818 21.3711C4.27273 20.1289 4 18.7422 4 17.2109C4 15.6641 4.26894 14.2891 4.80682 13.0859C5.33712 11.8828 6.06439 10.9297 6.98864 10.2266C7.91288 9.51562 8.96212 9.14062 10.1364 9.10156V11.9141Z" fill="white"/>
<path d="M18.0985 4V28H15.2803V4H18.0985Z" fill="white"/>
</svg>
